<?xml version="1.0" encoding="UTF-8" standalone="no"?>
<svg
   width="132.49158"
   height="20.664629"
   viewBox="0 0 132.49158 20.664629"
   fill="none"
   version="1.1"
   id="svg6"
   sodipodi:docname="logo.svg"
   inkscape:version="1.2.2 (732a01da63, 2022-12-09)"
   inkscape:export-filename="logo.png"
   inkscape:export-xdpi="96"
   inkscape:export-ydpi="96"
   xmlns:inkscape="http://www.inkscape.org/namespaces/inkscape"
   xmlns:sodipodi="http://sodipodi.sourceforge.net/DTD/sodipodi-0.dtd"
   xmlns="http://www.w3.org/2000/svg"
   xmlns:svg="http://www.w3.org/2000/svg">
  <defs
     id="defs10" />
  <sodipodi:namedview
     id="namedview8"
     pagecolor="#ffffff"
     bordercolor="#111111"
     borderopacity="1"
     inkscape:showpageshadow="0"
     inkscape:pageopacity="0"
     inkscape:pagecheckerboard="1"
     inkscape:deskcolor="#d1d1d1"
     showgrid="false"
     inkscape:zoom="3.5036561"
     inkscape:cx="47.379079"
     inkscape:cy="-9.1333164"
     inkscape:window-width="1366"
     inkscape:window-height="705"
     inkscape:window-x="-8"
     inkscape:window-y="-8"
     inkscape:window-maximized="1"
     inkscape:current-layer="svg6" />
  <path
     d="m 19.300624,-13.294475 h -4.0722 l -3.35452,-5.625 c -0.30273,-0.5176 -0.60058,-0.957 -0.89355,-1.3184 -0.2832,-0.3711 -0.57617,-0.6738 -0.87891,-0.9082 -0.2929701,-0.2343 -0.6152301,-0.4052 -0.9667901,-0.5127 -0.35157,-0.1074 -0.74707,-0.1611 -1.18653,-0.1611 h -1.40625 v 8.5254 H 3.070197 v -21.005859 h 6.9140669 c 0.9863201,0 1.8945301,0.117189 2.7245601,0.351559 0.8301,0.23438 1.5528,0.59082 2.168,1.06934 0.6152,0.46875 1.0938,1.05957 1.4356,1.77246 0.3515,0.70312 0.5273,1.52832 0.5273,2.47559 0,0.74218 -0.1123,1.42578 -0.3369,2.05078 -0.2149,0.61523 -0.5274,1.16699 -0.9375,1.65523 -0.4004,0.4786 -0.8887,0.8887 -1.4649,1.2305 -0.5664,0.3418 -1.206,0.6055 -1.9189,0.791 v 0.0586 c 0.3809,0.2149 0.7129,0.4541 0.9961,0.7178 0.2832,0.2539 0.5518,0.5176 0.8057,0.791 0.2539,0.2734 0.5029,0.5859 0.747,0.9375 0.2539,0.3418 0.5323,0.7422 0.835,1.2012 z M 6.5418739,-31.473185 v 6.82621 h 2.90039 c 0.53711,0 1.0302801,-0.083 1.4795001,-0.2491 0.45898,-0.166 0.85449,-0.40524 1.18652,-0.71774 0.33203,-0.3125 0.59084,-0.69336 0.77634,-1.14257 0.1856,-0.44922 0.2783,-0.95215 0.2783,-1.50879 0,-1.00586 -0.3173,-1.792 -0.9521,-2.3584 -0.63477,-0.56641 -1.54785,-0.84961 -2.7392601,-0.84961 z m 31.8755501,18.17871 h -3.8232 l -1.8897,-5.3467 h -8.2617 l -1.8164,5.3467 h -3.8086 l 7.8662,-21.005859 h 3.9258 z m -6.6357,-8.1885 -2.915,-8.37888 c -0.0879,-0.27344 -0.1807,-0.71289 -0.2784,-1.31836 h -0.0586 c -0.0878,0.55664 -0.1855,0.99609 -0.2929,1.31836 l -2.8858,8.37888 z m 20.274,-9.85838 h -7.8515 v 6.31348 h 7.2363 v 2.9443 h -7.2363 v 8.7891 h -3.4864 v -21.005859 h 11.3379 z"
     fill="#fd3d57"
     id="path2" />
  <path
     d="m 70.139641,-14.173375 c -1.5821,0.8203 -3.5498,1.2305 -5.9034,1.2305 -3.0468,0 -5.4882,-0.962 -7.3242,-2.8858 -1.8359,-1.9238 -2.7539,-4.4482 -2.7539,-7.5732 0,-3.3594 1.0303,-6.07424 3.0908,-8.14455 2.0703,-2.07032 4.6827,-3.105472 7.8369,-3.105472 2.0313,0 3.7159,0.288086 5.0538,0.864262 v 3.45703 c -1.4161,-0.83985 -2.9786,-1.25977 -4.6875,-1.25977 -2.2754,0 -4.1211,0.72754 -5.5372,2.18262 -1.4062,1.45508 -2.1093,3.39844 -2.1093,5.83008 0,2.3144 0.6592,4.1602 1.9775,5.5371 1.3184,1.3672 3.0518,2.0508 5.2002,2.0508 1.9824,0 3.7012,-0.4688 5.1563,-1.4063 z m 20.6402,0.8789 h -3.8233 l -1.8896,-5.3467 h -8.2617 l -1.8164,5.3467 h -3.8086 l 7.8662,-21.005859 h 3.9258 z m -6.6358,-8.1885 -2.915,-8.37888 c -0.0879,-0.27344 -0.1807,-0.71289 -0.2783,-1.31836 h -0.0586 c -0.0879,0.55664 -0.1856,0.99609 -0.293,1.31836 l -2.8857,8.37888 z m 25.166799,8.1885 h -4.072 l -3.3549,-5.625 c -0.3027,-0.5176 -0.6006,-0.957 -0.8936,-1.3184 -0.2832,-0.3711 -0.5761,-0.6738 -0.8789,-0.9082 -0.292899,-0.2343 -0.615199,-0.4052 -0.966799,-0.5127 -0.3515,-0.1074 -0.747,-0.1611 -1.1865,-0.1611 h -1.4062 v 8.5254 h -3.4717 v -21.005859 h 6.914 c 0.986399,0 1.894599,0.117189 2.724699,0.351559 0.8299,0.23438 1.5529,0.59082 2.1679,1.06934 0.615,0.46875 1.094,1.05957 1.436,1.77246 0.351,0.70312 0.527,1.52832 0.527,2.47559 0,0.74218 -0.112,1.42578 -0.337,2.05078 -0.215,0.61523 -0.527,1.16699 -0.938,1.65523 -0.4,0.4786 -0.888,0.8887 -1.464,1.2305 -0.567,0.3418 -1.206,0.6055 -1.9193,0.791 v 0.0586 c 0.3809,0.2149 0.7133,0.4541 0.9963,0.7178 0.283,0.2539 0.552,0.5176 0.805,0.791 0.254,0.2734 0.503,0.5859 0.748,0.9375 0.253,0.3418 0.532,0.7422 0.834,1.2012 z m -12.758899,-18.17871 v 6.82621 h 2.9004 c 0.5371,0 1.030199,-0.083 1.479399,-0.2491 0.459,-0.166 0.8545,-0.40524 1.1866,-0.71774 0.332,-0.3125 0.5908,-0.69336 0.7765,-1.14257 0.185,-0.44922 0.278,-0.95215 0.278,-1.50879 0,-1.00586 -0.317,-1.792 -0.952,-2.3584 -0.6348,-0.56641 -1.5478,-0.84961 -2.739199,-0.84961 z m 27.392899,0.13183 h -6.035 v 18.04688 h -3.486 v -18.04688 h -6.021 v -2.958979 h 15.542 z"
     fill="#2b2d42"
     id="path4" />
  <text
     xml:space="preserve"
     style="font-style:normal;font-variant:normal;font-weight:normal;font-stretch:normal;font-size:26.7179px;font-family:'Berlin Sans FB';-inkscape-font-specification:'Berlin Sans FB, Normal';font-variant-ligatures:normal;font-variant-caps:normal;font-variant-numeric:normal;font-variant-east-asian:normal;fill:#2b2d42;fill-opacity:1;stroke-width:7.55906"
     x="69.675819"
     y="19.497025"
     id="text401"><tspan
       sodipodi:role="line"
       id="tspan399"
       x="69.675819"
       y="19.497025">CART</tspan></text>
  <g
     aria-label="JAHEZ"
     id="text347"
     style="font-size:26.7179px;font-family:'Berlin Sans FB';-inkscape-font-specification:'Berlin Sans FB, Normal';fill:#ff0000;stroke-width:7.55906"
     transform="translate(3.3336724,-34.743341)">
    <path
       d="m 2.3804094,35.3565 q 0,1.278493 -0.1043668,3.848526 -0.091321,2.556986 -0.091321,3.835479 0,0.626201 0.013046,1.852511 0.013046,1.22631 0.013046,1.839465 0,2.857041 -0.521834,4.631276 -0.70447586,2.400436 -2.51784891,3.848526 -0.24787109,0.195687 -0.35223789,0.195687 -0.091321,0 -0.2087336,-0.143504 -0.9262553,-1.043668 -1.8264189,-1.865556 -0.1174127,-0.104367 -0.1174127,-0.195688 0,-0.104367 0.1435044,-0.234825 0.8871177,-0.769705 1.2002181,-1.148035 0.4826964,-0.626201 0.7305676,-1.526364 0.3261462,-1.200219 0.3261462,-4.944377 L -0.946282,43.379697 q 0,-1.226309 -0.1565502,-3.952892 -0.1565502,-2.622216 -0.1565502,-3.952892 0,-0.37833 0.37832964,-0.37833 0.24787114,0 0.74361341,0.03914 0.49574228,0.03914 0.74361341,0.03914 0.24787114,0 0.73056754,-0.03914 0.4826964,-0.03914 0.7175217,-0.03914 0.3261462,0 0.3261461,0.260917 z"
       id="path1032"
       style="fill:#ff0000" />
    <path
       d="m 21.20557,53.216268 q 0,0.15655 -0.3131,0.15655 -0.247871,0 -0.730568,-0.03914 -0.46965,-0.03914 -0.717521,-0.03914 -0.247872,0 -0.743614,0.03914 -0.495742,0.03914 -0.743613,0.03914 -0.365284,0 -0.939301,-1.969923 -0.560972,-1.982969 -1.148035,-2.009061 -0.482697,-0.02609 -2.517849,-0.02609 h -2.061244 q -2.1525654,0 -2.45262,0.02609 -0.4696505,0.03914 -1.0045304,2.009061 -0.5218339,1.969923 -0.8088426,1.969923 H 4.0894159 q -0.260917,0 -0.260917,-0.182642 0,-0.130458 0.1826419,-0.587063 l 3.1962331,-8.740719 q 0.4044213,-1.056714 2.4526196,-6.092412 0.3652835,-0.834934 0.9914845,-2.517849 0.15655,-0.495742 0.339192,-0.495742 0.247871,0 0.730568,0.06523 0.482696,0.06523 0.730567,0.06523 0.234826,0 0.704476,-0.06523 0.482697,-0.07828 0.704476,-0.07828 0.117413,0 0.326146,0.482697 0.313101,0.730567 3.091867,7.866647 3.9268,10.032258 3.9268,10.123579 z m -6.079366,-7.201309 q 0,-0.37833 -1.174126,-3.391921 -1.134989,-2.92227 -1.60464,-3.83548 -2.7004903,6.888209 -2.7004903,7.214355 0,0.443559 0.9914843,0.521834 0.05218,0.01305 1.278493,0.01305 h 1.343723 q 1.865556,0 1.865556,-0.521834 z"
       id="path1034"
       style="fill:#ff0000" />
    <path
       d="m 39.130567,53.072763 q 0,0.300055 -0.391375,0.300055 -0.22178,0 -0.69143,-0.03914 -0.456605,-0.03914 -0.69143,-0.03914 -0.247872,0 -0.75666,0.03914 -0.495742,0.03914 -0.743613,0.03914 -0.300055,0 -0.300055,-0.300055 0,-1.174126 0.06523,-3.522379 0.07827,-2.348253 0.07827,-3.522379 0,-0.508788 -0.300055,-0.587063 -0.391375,-0.104367 -4.513864,-0.104367 -4.109442,0 -4.513864,0.104367 -0.287008,0.07827 -0.287008,0.587063 0,1.148035 0.06523,3.45715 0.06523,2.309115 0.06523,3.45715 0,0.430513 -0.326146,0.430513 -0.247871,0 -0.743613,-0.03914 -0.495743,-0.03914 -0.743614,-0.03914 -0.234825,0 -0.704476,0.03914 -0.456604,0.03914 -0.69143,0.03914 -0.326146,0 -0.326146,-0.300055 0,-1.435043 0.130459,-4.30513 0.143504,-2.883132 0.143504,-4.318176 0,-1.513318 -0.143504,-4.539955 -0.130459,-3.039683 -0.130459,-4.553002 0,-0.287009 0.326146,-0.287009 0.234826,0 0.717522,0.03914 0.482696,0.03914 0.730568,0.03914 0.234825,0 0.730567,-0.03914 0.495742,-0.03914 0.730568,-0.03914 0.300054,0 0.300054,0.234826 0,1.121943 -0.104367,3.378875 -0.09132,2.243886 -0.09132,3.365829 0,0.365284 0.273962,0.443559 0.326147,0.117412 4.592139,0.117412 4.174672,0 4.566048,-0.117412 0.300054,-0.07827 0.300054,-0.560972 0,-1.095851 -0.07827,-3.3006 -0.06523,-2.204748 -0.06523,-3.3006 0,-0.260917 0.300054,-0.260917 0.247871,0 0.717522,0.03914 0.482696,0.03914 0.730568,0.03914 0.234825,0 0.704475,-0.03914 0.469651,-0.03914 0.704476,-0.03914 0.339192,0 0.339192,0.287009 0,1.513319 -0.130458,4.553002 -0.130459,3.026637 -0.130459,4.539955 0,1.435044 0.143505,4.318176 0.143504,2.870087 0.143504,4.30513 z"
       id="path1036"
       style="fill:#ff0000" />
    <path
       d="m 54.159386,50.750602 q 0,0.208734 -0.104367,0.600109 -0.117413,0.495743 -0.143504,0.600109 -0.03914,0.469651 -0.182642,1.369815 -0.06523,0.234825 -0.339192,0.234825 -0.130459,0 -0.495742,-0.05218 -1.60464,-0.234825 -4.970469,-0.234825 -0.952347,0 -2.870087,0.05218 -1.91774,0.05218 -2.870087,0.05218 -0.430513,0 -0.430513,-0.37833 0,-1.461135 0.15655,-4.383405 0.169596,-2.935316 0.169596,-4.396451 0,-1.487227 -0.15655,-5.544486 -0.02609,-1.043668 -0.143504,-3.117958 l -0.01305,-0.182642 q -0.01305,-0.300055 0.339192,-0.300055 0.91321,0 2.739629,0.05218 1.826418,0.05218 2.739628,0.05218 0.874072,0 2.60917,-0.05218 1.748144,-0.05218 2.622215,-0.05218 0.613155,0 0.665339,0.37833 0.273963,1.722052 0.273963,2.139519 0,0.300055 -0.287009,0.300055 -1.108897,0 -3.365829,-0.117413 -2.243886,-0.130458 -3.378875,-0.130458 -1.06976,0 -1.356769,0.287008 -0.273962,0.287009 -0.273962,1.421998 v 1.943832 q 0,0.795796 0.03914,0.926255 0.117413,0.404421 0.678384,0.404421 0.156551,0 0.443559,-0.01305 0.300055,0 0.443559,0 2.556987,0 4.592139,-0.09132 0.795797,-0.02609 1.878602,-0.130458 0.273963,-0.02609 0.273963,0.234825 0,0.417467 -0.104367,1.278493 -0.09132,0.861026 -0.09132,1.291539 0,0.234826 -0.391375,0.234826 -0.15655,0 -1.161081,-0.09132 -0.730567,-0.07828 -3.287554,-0.07828 -2.152565,0 -2.726582,0.05218 -0.521834,0.03914 -0.600109,0.547926 0.01305,-0.09132 0.01305,1.00453 v 1.930786 q 0,1.356768 0.417467,1.69596 0.326146,0.273963 1.630731,0.273963 l 1.435043,-0.01305 q 0.91321,0 5.127019,-0.3131 l 0.195688,-0.01305 q 0.260917,-0.02609 0.260917,0.326146 z"
       id="path1038"
       style="fill:#ff0000" />
    <path
       d="m 92.814022,36.718547 c -9.398443,3.454698 -12.290492,12.804156 -18.564881,15.069124 -4.099604,1.479901 -8.743182,1.640263 -9.679167,1.637334 -1.026274,-0.03479 -1.800328,-0.05218 -2.322162,-0.05218 h -6.196778 c -0.243523,0 -0.387027,-0.08697 -0.430513,-0.260917 -0.191339,-0.97409 -0.287009,-1.700309 -0.287009,-2.178657 0,-0.09567 1.321979,-2.222143 3.965938,-6.37942 2.652657,-4.165975 3.978985,-6.353329 3.978985,-6.562062 0,-0.09567 -0.108716,-0.143505 -0.326147,-0.143505 h -6.953437 c -0.173945,0 -0.260917,-0.08697 -0.260917,-0.260917 0,-0.06958 0.06088,-0.465301 0.182642,-1.187172 0.130458,-0.72187 0.208733,-1.139337 0.234825,-1.252401 0.03479,-0.121761 0.139153,-0.182642 0.3131,-0.182642 0.339192,0 0.839283,0.03044 1.500273,0.09132 0.669687,0.06088 1.169778,0.09132 1.500273,0.09132 h 7.331767 c 0.15655,0 0.25222,0.07393 0.287009,0.221779 0.130458,0.530531 0.195687,1.178475 0.195687,1.943832 0,0.05218 -1.378511,2.239534 -4.135534,6.562062 -2.748325,4.322525 -4.126837,6.549016 -4.135534,6.679475 0.04349,0.06088 0.12611,0.09132 0.247871,0.09132 2.522197,0 4.452983,-0.05218 5.792357,-0.15655 0.173945,-0.01739 0.56532,-0.06523 1.174126,-0.143504 0.974712,-0.03929 4.493268,0.251025 6.983499,-1.41845 4.255829,-2.853149 4.655243,-8.552306 19.603727,-12.209189 z"
       id="path1040"
       sodipodi:nodetypes="cscsscscssssccscsscsccsccsc"
       style="fill:#ff0000" />
  </g>
</svg>
